# xmcd CD database file
#
# Track frame offsets:
#	225
#	17319
#	26591
#	39882
#	50766
#	65924
#	104961
#	123085
#	138940
#	166200
#	176886
#	188509
#	207516
#	223379
#
# Disc length: 3226 seconds
#
# Revision: 0
# Processed by: cddbd v1.4PL0 Copyright (c) Steve Scherf et al.
# Submitted via: CDex 1.51
#
DISCID=d00c970e
DTITLE=Various Artist - " The Shadow Of Your Smile"
DYEAR=1999
DGENRE=Jazz
TTITLE0=The Shadow Of Your Smile
TTITLE1=Baby Elephant Walk
TTITLE2=Take Five
TTITLE3=Blue Bossa
TTITLE4=But Not For Me
TTITLE5=Charlie Brown Christmas Medley
TTITLE6=Gershwin Medley
TTITLE7=Jazz Exercises 2 And 3
TTITLE8=One For Helen
TTITLE9=C Jam Blues
TTITLE10=King For A Day
TTITLE11=Peri's Scope
TTITLE12=Somebody Loves Me
TTITLE13=The Return Of The Red Baron
EXTD=YEAR: 1999
EXTT0=
EXTT1=
EXTT2=
EXTT3=
EXTT4=
EXTT5=
EXTT6=
EXTT7=
EXTT8=
EXTT9=
EXTT10=
EXTT11=
EXTT12=
EXTT13=
PLAYORDER=
